<?xml version="1.0" encoding="UTF-8"?>
<svg id="Capa_2" data-name="Capa 2" xmlns="http://www.w3.org/2000/svg" viewBox="0 0 304.32 393.37">
  <defs>
    <style>
      .cls-1 {
        fill: #22458b;
      }

      .cls-2 {
        font-family: Ebrima, Ebrima;
        font-size: 80px;
      }

      .cls-3 {
        fill: #171c21;
      }
    </style>
  </defs>
  <g id="Capa_2-2" data-name="Capa 2">
    <g>
      <path class="cls-1" d="M199.95,11.31c-8.69,7.18-19.61,17.67-29.93,32.13-10.94,15.33-17.47,29.92-21.42,40.89-4.4-11.11-11.29-25.34-22.13-40.3-10.34-14.26-21.14-24.87-29.98-32.38C106.28,7.15,123.94.57,146.9.27c24.34-.33,43.07,6.54,53.05,11.04Z"/>
      <path class="cls-1" d="M235.46,33.56c4.06,2.89,8.84,6.81,13.63,12.02,3.97,4.32,7.04,8.54,9.38,12.23-11.58-.05-31.24,1.54-52,12.3-42.29,21.91-55.35,64.35-57.86,73.19-1.8-7.8-12.41-50.22-53.25-73.19-22.55-12.68-44.3-13.8-55.42-13.55,2.15-2.84,4.52-5.79,7.15-8.78,4.15-4.74,8.28-8.86,12.2-12.44,9.32.12,22.14,1.61,35.8,7.67,37.87,16.77,50.96,54.7,53.52,62.65,3.75-10.37,17.7-44.83,53.71-62.52,12.29-6.04,23.96-8.56,33.14-9.58Z"/>
      <path class="cls-1" d="M273.65,82.61c2.23,3.78,4.61,8.44,6.69,13.94,1.89,4.99,3.13,9.61,3.96,13.6-8.16-.68-77.23-5.36-115.76,43.8-11.09,14.15-16.74,29.05-19.72,41.19-2.9-12.2-8.57-27.47-20.03-41.85C89.89,104.46,20.19,110.87,12.8,111.67c1.2-5,2.87-10.61,5.22-16.6,1.82-4.63,3.76-8.79,5.7-12.49,9.19-1.14,45.06-4.48,79.79,19,30.73,20.78,41.89,49.93,45.1,59.48,3.59-10.42,14.12-36.38,40.97-56.3,35.81-26.55,74.83-23.21,84.07-22.16Z"/>
      <path class="cls-3" d="M7.59,133.48c10.49-2.08,44.78-7.52,81.69,11,39.06,19.6,55.12,53.01,59.27,62.44,4.67-10.37,19.45-39.58,53.4-58.94,39.21-22.35,77.39-16.39,87.68-14.44.2,5.72.4,11.43.59,17.15l.56,16.06c-21.64-3.14-39.07-.86-50.16,1.5-16.81,3.58-46.27,9.85-64.74,35.62-10.53,14.69-13.44,30.06-14.37,39.27h127.56v29.11H8.39v-29.56c42.37-.07,84.74-.14,127.11-.22-2.95-19.7-10.73-32.17-15.47-38.52-23.97-32.12-65.95-36-82.81-37.56-13.15-1.21-23.97-.45-30.79.32.39-11.08.77-22.16,1.16-33.24Z"/>
      <text class="cls-2" transform="translate(0 367.82)"><tspan x="0" y="0">KREMER</tspan></text>
    </g>
  </g>
</svg>